<svg width="1204" height="905" viewBox="0 0 1204 905" fill="none" xmlns="http://www.w3.org/2000/svg">
<path fill-rule="evenodd" clip-rule="evenodd" d="M896.5 225.5C889.31 230.182 882.81 235.849 877 242.5C871.08 252.002 865.41 261.669 860 271.5C853.54 279.316 845.37 284.482 835.5 287C779.5 287.667 723.5 287.667 667.5 287C660.417 284.882 655.584 280.382 653 273.5C657.666 226.955 638.499 195.122 595.5 178C578.745 171.35 561.412 167.183 543.5 165.5C543.333 148.163 543.5 130.83 544 113.5C546.568 106.599 551.402 102.099 558.5 100C571.739 100.261 578.072 93.761 577.5 80.5C577.093 68.594 570.927 62.594 559 62.5C532.285 65.553 514.952 79.886 507 105.5C506.506 107.134 506.34 108.801 506.5 110.5C505.821 128.735 505.154 147.069 504.5 165.5C488.548 167.296 477.715 175.63 472 190.5C470.725 215.465 470.058 240.465 470 265.5C467.491 277.342 460.324 284.509 448.5 287C401.472 287.035 354.472 287.702 307.5 289C281.482 295.855 264.482 312.022 256.5 337.5C250.011 334.427 243.345 331.594 236.5 329C224.601 325.522 212.768 325.688 201 329.5C194.439 332.531 187.939 335.697 181.5 339C175.568 340.378 169.568 341.211 163.5 341.5C163.5 342.5 163.5 343.5 163.5 344.5C169.324 344.723 174.99 343.89 180.5 342C189.601 337.449 198.935 333.449 208.5 330C217.213 329.202 225.88 329.536 234.5 331C241.283 333.891 247.95 337.058 254.5 340.5C250.9 404.2 269.4 460.533 310 509.5C363.761 571.306 431.594 607.306 513.5 617.5C503.545 635.96 506.545 651.96 522.5 665.5C520.212 674.545 523.545 677.879 532.5 675.5C534.072 683.956 538.572 686.289 546 682.5C547.278 679.279 548.111 675.946 548.5 672.5C548.833 672.5 549.167 672.5 549.5 672.5C615.573 691.408 681.906 709.741 748.5 727.5C748.91 735.488 751.91 742.321 757.5 748C761.17 750.5 764.83 753 768.5 755.5C762.99 760.845 757.15 765.85 751 770.5C739.33 791.17 741.49 810.34 757.5 828C762.16 829.19 764.82 827.35 765.5 822.5C760.4 815.62 756.9 807.95 755 799.5C753.81 792.48 754.81 785.81 758 779.5C762.38 775.06 767.21 771.23 772.5 768C775.53 764.77 778.2 761.27 780.5 757.5C787.34 755.999 793.67 753.332 799.5 749.5C800.67 749.919 801.67 750.585 802.5 751.5C801.66 755.14 801.5 758.806 802 762.5C795.66 774.52 790.99 787.18 788 800.5C776.52 805.28 774.68 812.45 782.5 822C795.45 825.93 801.62 821.1 801 807.5C810.46 798.38 818.8 788.38 826 777.5C828.68 775.95 831.51 774.61 834.5 773.5C866.71 791.43 897.37 811.6 926.5 834C929.67 837.17 932.83 840.33 936 843.5C936.71 845.37 936.21 846.87 934.5 848C905.47 862.84 874.8 872.34 842.5 876.5C841.03 879.94 839.69 883.44 838.5 887C840.68 889.93 843.68 891.59 847.5 892C890.02 899.57 931.35 895.57 971.5 880C982.45 874.86 993.12 869.19 1003.5 863C1009.33 863.8 1013 861.47 1014.5 856C1021.67 796.51 1004.67 745.176 963.5 702C961.63 700.634 959.63 699.467 957.5 698.5C953.97 701.199 950.97 704.366 948.5 708C965.77 735.737 972.44 765.74 968.5 798C961.53 797.01 954.69 795.18 948 792.5C914.49 779.99 881.99 765.16 850.5 748C848.33 745.507 847.49 742.674 848 739.5C854.07 727.697 858.73 715.364 862 702.5C870.91 699.356 873.91 693.356 871 684.5C863.04 675.997 856.04 676.664 850 686.5C849.67 689.5 849.33 692.5 849 695.5C839.2 704.955 830.54 715.289 823 726.5C819.52 726.794 816.69 728.294 814.5 731C813.21 731.49 811.87 731.657 810.5 731.5C812.65 716.479 807.32 705.145 794.5 697.5C793.42 695.208 793.42 692.875 794.5 690.5C792.97 684.903 789.64 683.403 784.5 686C783.19 688.355 782.19 690.855 781.5 693.5C780.35 690.721 779.02 688.054 777.5 685.5C774.71 683.96 772.21 684.294 770 686.5C769.5 689.482 769.34 692.482 769.5 695.5C767.42 695.472 765.58 696.139 764 697.5C762.14 695.64 760.31 693.806 758.5 692C754.17 690.664 751.5 692.164 750.5 696.5C751.44 699.54 752.77 702.374 754.5 705C753.1 708.33 751.1 711.164 748.5 713.5C688.11 696.986 627.776 680.319 567.5 663.5C580.395 650.49 582.729 635.824 574.5 619.5C600.833 618.833 627.167 618.167 653.5 617.5C680.536 615.475 704.54 605.975 725.5 589C732.89 581.613 740.22 574.279 747.5 567C761.95 558.065 777.62 554.899 794.5 557.5C795.9 563.16 798.9 567.66 803.5 571C814.83 571.5 826.16 571.667 837.5 571.5C839.65 571.628 841.65 571.128 843.5 570C846.29 566.919 848.46 563.419 850 559.5C856.05 538.416 857.05 517.083 853 495.5C851.61 489.94 849.61 484.606 847 479.5C845.95 476.944 844.11 475.277 841.5 474.5C829.01 473.34 816.34 473.173 803.5 474C798.32 477.85 795.32 483.016 794.5 489.5C781.03 491.531 775.53 485.865 778 472.5C787.17 462.679 798.34 456.179 811.5 453C815.42 451.46 818.92 449.293 822 446.5C823.94 442.952 825.61 439.286 827 435.5C830.41 420.428 834.08 405.428 838 390.5C842.53 380.629 850.03 374.463 860.5 372C879.5 371.667 898.5 371.333 917.5 371C933.54 368.328 944.54 359.495 950.5 344.5C957.35 343.954 964.02 342.454 970.5 340C976.44 336.197 982.77 333.197 989.5 331C994.42 329.75 999.42 329.25 1004.5 329.5C1004.5 328.5 1004.5 327.5 1004.5 326.5C999.43 326.34 994.43 326.84 989.5 328C980.35 331.742 971.35 335.742 962.5 340C959.44 340.256 956.44 340.756 953.5 341.5C952.89 341.376 952.56 341.043 952.5 340.5C953.45 314.188 953.79 287.855 953.5 261.5C994.47 287.323 1035.47 313.156 1076.5 339C1168.72 410.313 1210.89 504.48 1203 621.5C1190.64 719.444 1143.8 795.94 1062.5 851C982.81 899.45 897.81 911.78 807.5 888C780.69 879.93 755.35 868.59 731.5 854C582.167 760.667 432.833 667.333 283.5 574C189.141 511.81 140.141 423.81 136.5 310C139.257 208.153 180.257 125.819 259.5 63C353.575 -3.76097 454.908 -17.094 563.5 23C576.232 28.199 588.565 34.199 600.5 41C699.05 102.772 797.72 164.272 896.5 225.5Z" fill="#274D76"/>
<path fill-rule="evenodd" clip-rule="evenodd" d="M896.5 225.5C907.51 219.421 919.34 216.087 932 215.5C941.67 214.836 948.67 218.836 953 227.5C953.5 238.828 953.67 250.162 953.5 261.5C953.79 287.855 953.45 314.188 952.5 340.5C946.19 341.799 939.85 341.633 933.5 340C923.27 334.549 912.6 330.215 901.5 327C896.18 326.501 890.84 326.334 885.5 326.5C885.33 315.828 885.5 305.161 886 294.5C889.26 286.911 894.76 281.744 902.5 279C916.5 278.5 930.5 278.333 944.5 278.5C944.5 277.5 944.5 276.5 944.5 275.5C930.83 275.333 917.16 275.5 903.5 276C892.21 278.958 885.37 286.124 883 297.5C882.5 307.494 882.33 317.494 882.5 327.5C873.74 328.712 865.74 331.878 858.5 337C848.17 340.952 837.5 342.285 826.5 341C821.4 340.028 816.74 338.195 812.5 335.5C808.68 318.126 813.51 303.792 827 292.5C827.59 291.517 827.26 290.85 826 290.5C818.59 295.318 813.59 301.984 811 310.5C809.64 318.429 809.14 326.429 809.5 334.5C793.54 325.685 776.87 324.185 759.5 330C742.06 341.635 723.39 344.302 703.5 338C688.26 327.586 671.589 324.253 653.5 328C644.382 331.725 635.382 335.725 626.5 340C615.725 342.326 605.059 341.992 594.5 339C587.621 335.394 580.621 332.061 573.5 329C562.912 326.152 552.245 325.819 541.5 328C532.382 331.725 523.382 335.725 514.5 340C504.819 341.877 495.152 341.877 485.5 340C476.429 335.467 467.096 331.467 457.5 328C448.167 326 438.833 326 429.5 328C420.382 331.725 411.382 335.725 402.5 340C385.129 344.059 369.129 341.059 354.5 331C349.698 328.897 344.698 327.731 339.5 327.5C339.5 320.833 339.5 314.167 339.5 307.5C338.5 307.5 337.5 307.5 336.5 307.5C336.5 313.833 336.5 320.167 336.5 326.5C330.102 326.243 323.769 326.743 317.5 328C308.382 331.725 299.382 335.725 290.5 340C280.83 341.953 271.163 341.953 261.5 340C259.509 339.626 257.842 338.793 256.5 337.5C264.482 312.022 281.482 295.855 307.5 289C354.472 287.702 401.472 287.035 448.5 287C460.324 284.509 467.491 277.342 470 265.5C470.058 240.465 470.725 215.465 472 190.5C477.715 175.63 488.548 167.296 504.5 165.5C506.487 147.53 507.154 129.197 506.5 110.5C506.34 108.801 506.506 107.134 507 105.5C514.952 79.886 532.285 65.553 559 62.5C570.927 62.594 577.093 68.594 577.5 80.5C578.072 93.761 571.739 100.261 558.5 100C551.402 102.099 546.568 106.599 544 113.5C543.5 130.83 543.333 148.163 543.5 165.5C561.412 167.183 578.745 171.35 595.5 178C638.499 195.122 657.666 226.955 653 273.5C655.584 280.382 660.417 284.882 667.5 287C723.5 287.667 779.5 287.667 835.5 287C845.37 284.482 853.54 279.316 860 271.5C865.41 261.669 871.08 252.002 877 242.5C882.81 235.849 889.31 230.182 896.5 225.5Z" fill="#FDF2A0"/>
<path fill-rule="evenodd" clip-rule="evenodd" d="M557.5 66.5C573.319 67.824 578.152 75.824 572 90.5C567.772 95.087 562.606 96.587 556.5 95C548.84 90.242 546.34 83.408 549 74.5C551.074 70.923 553.907 68.256 557.5 66.5Z" fill="#3B5979"/>
<path fill-rule="evenodd" clip-rule="evenodd" d="M556.5 69.5C568.988 68.494 573.821 74.161 571 86.5C567.537 92.878 562.37 94.711 555.5 92C550.913 87.772 549.413 82.606 551 76.5C551.967 73.379 553.8 71.046 556.5 69.5Z" fill="#F9EEA0"/>
<path fill-rule="evenodd" clip-rule="evenodd" d="M506.5 110.5C507.154 129.197 506.487 147.53 504.5 165.5C505.154 147.069 505.821 128.735 506.5 110.5Z" fill="#C2C394"/>
<path fill-rule="evenodd" clip-rule="evenodd" d="M512.5 162.5C522.194 162.307 531.861 162.64 541.5 163.5C541.5 164.5 541.5 165.5 541.5 166.5C530.841 165.928 520.174 165.262 509.5 164.5C510.602 163.824 511.602 163.158 512.5 162.5Z" fill="#3D5A79"/>
<path fill-rule="evenodd" clip-rule="evenodd" d="M479.5 201.5C525.5 201.5 571.5 201.5 617.5 201.5C617.5 202.5 617.5 203.5 617.5 204.5C571.5 204.5 525.5 204.5 479.5 204.5C479.5 203.5 479.5 202.5 479.5 201.5Z" fill="#365678"/>
<path fill-rule="evenodd" clip-rule="evenodd" d="M481.5 226.5C532.5 226.5 583.5 226.5 634.5 226.5C634.5 227.5 634.5 228.5 634.5 229.5C583.5 229.5 532.5 229.5 481.5 229.5C481.5 228.5 481.5 227.5 481.5 226.5Z" fill="#3F5B7A"/>
<path fill-rule="evenodd" clip-rule="evenodd" d="M885.5 326.5C884.61 327.11 883.61 327.443 882.5 327.5C882.33 317.494 882.5 307.494 883 297.5C885.37 286.124 892.21 278.958 903.5 276C917.16 275.5 930.83 275.333 944.5 275.5C944.5 276.5 944.5 277.5 944.5 278.5C930.5 278.333 916.5 278.5 902.5 279C894.76 281.744 889.26 286.911 886 294.5C885.5 305.161 885.33 315.828 885.5 326.5Z" fill="#25221A"/>
<path fill-rule="evenodd" clip-rule="evenodd" d="M656.5 286.5C593.842 288.496 530.842 289.163 467.5 288.5C530.158 286.504 593.158 285.837 656.5 286.5Z" fill="#274D76"/>
<path fill-rule="evenodd" clip-rule="evenodd" d="M656.5 286.5C657.404 287.209 657.737 288.209 657.5 289.5C593.998 289.832 530.664 289.499 467.5 288.5C530.842 289.163 593.842 288.496 656.5 286.5Z" fill="#788C86"/>
<path fill-rule="evenodd" clip-rule="evenodd" d="M812.5 335.5C811.39 335.443 810.39 335.11 809.5 334.5C809.14 326.429 809.64 318.429 811 310.5C813.59 301.984 818.59 295.318 826 290.5C827.26 290.85 827.59 291.517 827 292.5C813.51 303.792 808.68 318.126 812.5 335.5Z" fill="#16140F"/>
<path fill-rule="evenodd" clip-rule="evenodd" d="M809.5 334.5C810.39 335.11 811.39 335.443 812.5 335.5C816.74 338.195 821.4 340.028 826.5 341C837.5 342.285 848.17 340.952 858.5 337C865.74 331.878 873.74 328.712 882.5 327.5C883.61 327.443 884.61 327.11 885.5 326.5C890.84 326.334 896.18 326.501 901.5 327C912.6 330.215 923.27 334.549 933.5 340C939.85 341.633 946.19 341.799 952.5 340.5C952.56 341.043 952.89 341.376 953.5 341.5C956.44 340.756 959.44 340.256 962.5 340C971.35 335.742 980.35 331.742 989.5 328C994.43 326.84 999.43 326.34 1004.5 326.5C1004.5 327.5 1004.5 328.5 1004.5 329.5C999.42 329.25 994.42 329.75 989.5 331C982.77 333.197 976.44 336.197 970.5 340C964.02 342.454 957.35 343.954 950.5 344.5C945.11 344.595 939.78 344.095 934.5 343C926.93 340.215 919.6 336.881 912.5 333C903.75 329.973 894.75 328.807 885.5 329.5C884.21 329.263 883.21 329.596 882.5 330.5C873.78 331.797 865.78 334.964 858.5 340C843.35 346.156 828.35 345.989 813.5 339.5C812.61 338.89 811.61 338.557 810.5 338.5C798.35 330.634 785.02 327.801 770.5 330C758.32 334.919 745.98 339.586 733.5 344C724.35 345.045 715.35 344.379 706.5 342C699.65 338.41 692.65 335.077 685.5 332C674.912 329.152 664.245 328.819 653.5 331C644.648 335.258 635.648 339.258 626.5 343C608.317 346.952 591.65 343.618 576.5 333C565.004 329.29 553.337 328.623 541.5 331C532.147 335.036 522.814 339.036 513.5 343C501.169 345.73 489.169 344.73 477.5 340C463.862 330.78 448.862 327.447 432.5 330C422.052 334.057 411.718 338.391 401.5 343C384.467 346.926 368.801 343.926 354.5 334C350.693 332.119 346.693 330.953 342.5 330.5C341.432 329.566 340.099 329.232 338.5 329.5C338.5 387.5 338.5 445.5 338.5 503.5C336.504 445.843 335.837 387.843 336.5 329.5C331.156 329.334 325.823 329.501 320.5 330C311.815 332.842 303.481 336.509 295.5 341C281.732 345.826 268.066 345.659 254.5 340.5C247.95 337.058 241.283 333.891 234.5 331C225.88 329.536 217.213 329.202 208.5 330C198.935 333.449 189.601 337.449 180.5 342C174.99 343.89 169.324 344.723 163.5 344.5C163.5 343.5 163.5 342.5 163.5 341.5C169.568 341.211 175.568 340.378 181.5 339C187.939 335.697 194.439 332.531 201 329.5C212.768 325.688 224.601 325.522 236.5 329C243.345 331.594 250.011 334.427 256.5 337.5C257.842 338.793 259.509 339.626 261.5 340C271.163 341.953 280.83 341.953 290.5 340C299.382 335.725 308.382 331.725 317.5 328C323.769 326.743 330.102 326.243 336.5 326.5C336.5 320.167 336.5 313.833 336.5 307.5C337.5 307.5 338.5 307.5 339.5 307.5C339.5 314.167 339.5 320.833 339.5 327.5C344.698 327.731 349.698 328.897 354.5 331C369.129 341.059 385.129 344.059 402.5 340C411.382 335.725 420.382 331.725 429.5 328C438.833 326 448.167 326 457.5 328C467.096 331.467 476.429 335.467 485.5 340C495.152 341.877 504.819 341.877 514.5 340C523.382 335.725 532.382 331.725 541.5 328C552.245 325.819 562.912 326.152 573.5 329C580.621 332.061 587.621 335.394 594.5 339C605.059 341.992 615.725 342.326 626.5 340C635.382 335.725 644.382 331.725 653.5 328C671.589 324.253 688.26 327.586 703.5 338C723.39 344.302 742.06 341.635 759.5 330C776.87 324.185 793.54 325.685 809.5 334.5Z" fill="#F7F9F6"/>
<path fill-rule="evenodd" clip-rule="evenodd" d="M338.5 503.5C339.499 446.002 339.832 388.336 339.5 330.5C340.5 330.5 341.5 330.5 342.5 330.5C346.693 330.953 350.693 332.119 354.5 334C368.801 343.926 384.467 346.926 401.5 343C411.718 338.391 422.052 334.057 432.5 330C448.862 327.447 463.862 330.78 477.5 340C489.169 344.73 501.169 345.73 513.5 343C522.814 339.036 532.147 335.036 541.5 331C553.337 328.623 565.004 329.29 576.5 333C591.65 343.618 608.317 346.952 626.5 343C635.648 339.258 644.648 335.258 653.5 331C664.245 328.819 674.912 329.152 685.5 332C692.65 335.077 699.65 338.41 706.5 342C715.35 344.379 724.35 345.045 733.5 344C745.98 339.586 758.32 334.919 770.5 330C785.02 327.801 798.35 330.634 810.5 338.5C815.58 356.601 827.24 366.601 845.5 368.5C834.31 365.451 825.14 359.451 818 350.5C815.93 347.029 814.43 343.362 813.5 339.5C828.35 345.989 843.35 346.156 858.5 340C865.78 334.964 873.78 331.797 882.5 330.5C881.86 340.889 882.53 350.889 884.5 360.5C885.49 350.347 885.83 340.014 885.5 329.5C894.75 328.807 903.75 329.973 912.5 333C919.6 336.881 926.93 340.215 934.5 343C939.78 344.095 945.11 344.595 950.5 344.5C944.54 359.495 933.54 368.328 917.5 371C898.5 371.333 879.5 371.667 860.5 372C850.03 374.463 842.53 380.629 838 390.5C834.08 405.428 830.41 420.428 827 435.5C825.61 439.286 823.94 442.952 822 446.5C818.92 449.293 815.42 451.46 811.5 453C798.34 456.179 787.17 462.679 778 472.5C775.53 485.865 781.03 491.531 794.5 489.5C795.32 483.016 798.32 477.85 803.5 474C816.34 473.173 829.01 473.34 841.5 474.5C837.34 474.143 834.17 475.81 832 479.5C825.97 493.495 823.14 508.162 823.5 523.5C823.43 538.11 826.27 552.11 832 565.5C833.36 568.023 835.19 570.023 837.5 571.5C826.16 571.667 814.83 571.5 803.5 571C798.9 567.66 795.9 563.16 794.5 557.5C777.62 554.899 761.95 558.065 747.5 567C740.22 574.279 732.89 581.613 725.5 589C704.54 605.975 680.536 615.475 653.5 617.5C626.825 617.167 600.158 617.5 573.5 618.5C573.624 619.107 573.957 619.44 574.5 619.5C582.729 635.824 580.395 650.49 567.5 663.5C562.327 668.087 556.327 671.087 549.5 672.5C549.167 672.5 548.833 672.5 548.5 672.5C548.433 671.041 548.766 669.708 549.5 668.5C566.402 664.591 575.402 653.925 576.5 636.5C572.858 613.031 559.191 602.531 535.5 605C516.243 611.914 508.41 625.414 512 645.5C513.853 652.549 517.686 658.216 523.5 662.5C522.89 663.391 522.557 664.391 522.5 665.5C506.545 651.96 503.545 635.96 513.5 617.5C431.594 607.306 363.761 571.306 310 509.5C269.4 460.533 250.9 404.2 254.5 340.5C268.066 345.659 281.732 345.826 295.5 341C303.481 336.509 311.815 332.842 320.5 330C325.823 329.501 331.156 329.334 336.5 329.5C335.837 387.843 336.504 445.843 338.5 503.5Z" fill="#74B9AB"/>
<path fill-rule="evenodd" clip-rule="evenodd" d="M342.5 330.5C341.5 330.5 340.5 330.5 339.5 330.5C339.832 388.336 339.499 446.002 338.5 503.5C338.5 445.5 338.5 387.5 338.5 329.5C340.099 329.232 341.432 329.566 342.5 330.5Z" fill="#CAE4DF"/>
<path fill-rule="evenodd" clip-rule="evenodd" d="M882.5 330.5C884.47 340.111 885.14 350.111 884.5 360.5C882.53 350.889 881.86 340.889 882.5 330.5Z" fill="black"/>
<path fill-rule="evenodd" clip-rule="evenodd" d="M882.5 330.5C883.21 329.596 884.21 329.263 885.5 329.5C885.83 340.014 885.49 350.347 884.5 360.5C885.14 350.111 884.47 340.111 882.5 330.5Z" fill="#3F5E57"/>
<path fill-rule="evenodd" clip-rule="evenodd" d="M810.5 338.5C811.61 338.557 812.61 338.89 813.5 339.5C814.43 343.362 815.93 347.029 818 350.5C825.14 359.451 834.31 365.451 845.5 368.5C827.24 366.601 815.58 356.601 810.5 338.5Z" fill="#0E1313"/>
<path fill-rule="evenodd" clip-rule="evenodd" d="M540.5 377.5C581 375.188 606.5 393.522 617 432.5C619.952 468.464 604.785 492.964 571.5 506C532.138 514.736 504.638 500.569 489 463.5C480.912 430.755 490.745 404.922 518.5 386C525.607 382.248 532.94 379.415 540.5 377.5Z" fill="#F2F8F7"/>
<path fill-rule="evenodd" clip-rule="evenodd" d="M539.5 380.5C578.344 377.32 603.177 394.32 614 431.5C617.458 460.076 607.291 482.243 583.5 498C549.103 513.974 520.603 506.808 498 476.5C481.876 446.177 486.042 419.01 510.5 395C519.154 388.006 528.821 383.173 539.5 380.5Z" fill="#74BAAB"/>
<path fill-rule="evenodd" clip-rule="evenodd" d="M396.5 392.5C426.919 390.281 446.753 403.614 456 432.5C459.221 456.549 450.721 475.049 430.5 488C403.27 499.629 380.77 493.796 363 470.5C348.773 441.614 354.606 417.78 380.5 399C385.744 396.315 391.077 394.148 396.5 392.5Z" fill="#F1F8F6"/>
<path fill-rule="evenodd" clip-rule="evenodd" d="M685.5 392.5C717.77 390.626 737.6 405.293 745 436.5C746.25 465.518 733.09 484.351 705.5 493C678.19 496.765 658.69 486.265 647 461.5C638.529 426.43 651.362 403.43 685.5 392.5Z" fill="#F2F8F7"/>
<path fill-rule="evenodd" clip-rule="evenodd" d="M397.5 395.5C425.815 393.341 444.315 405.675 453 432.5C456.425 463.84 442.925 483.34 412.5 491C383.926 492.303 366.093 479.136 359 451.5C356.727 422.297 369.561 403.63 397.5 395.5Z" fill="#74BAAB"/>
<path fill-rule="evenodd" clip-rule="evenodd" d="M684.5 395.5C714.87 392.923 734.04 406.256 742 435.5C744.33 460.355 734.16 477.855 711.5 488C683.76 495.868 663.265 487.035 650 461.5C641.236 428.689 652.736 406.689 684.5 395.5Z" fill="#74BAAB"/>
<path fill-rule="evenodd" clip-rule="evenodd" d="M546.5 410.5C571.159 410.66 583.659 422.993 584 447.5C578.731 467.893 565.564 477.059 544.5 475C525.837 468.531 517.67 455.365 520 435.5C524.548 422.448 533.381 414.114 546.5 410.5Z" fill="#274D76"/>
<path fill-rule="evenodd" clip-rule="evenodd" d="M107.5 457.5C99.433 451.807 90.433 448.307 80.5 447C68.787 446.209 57.121 446.376 45.5 447.5C41.951 442.737 40.451 437.404 41 431.5C41.893 430.919 42.893 430.585 44 430.5C47.124 431.646 50.29 432.646 53.5 433.5C54.5 433.167 55.5 432.833 56.5 432.5C58.053 427.984 58.887 423.318 59 418.5C62.883 414.537 66.549 414.87 70 419.5C72.458 424.253 75.292 428.753 78.5 433C79.833 433.667 81.167 433.667 82.5 433C83.167 431 83.833 429 84.5 427C86.167 426.333 87.833 426.333 89.5 427C97.931 435.689 103.931 445.855 107.5 457.5Z" fill="#2A4F78"/>
<path fill-rule="evenodd" clip-rule="evenodd" d="M399.5 418.5C414.29 416.81 424.456 422.81 430 436.5C431.642 459.192 421.142 469.358 398.5 467C383.125 459.553 378.292 447.72 384 431.5C387.869 425.452 393.035 421.118 399.5 418.5Z" fill="#274D76"/>
<path fill-rule="evenodd" clip-rule="evenodd" d="M688.5 418.5C708.39 417.495 718.56 426.829 719 446.5C713.4 465.379 701.23 471.545 682.5 465C669.962 456.056 666.795 444.556 673 430.5C676.659 424.435 681.826 420.435 688.5 418.5Z" fill="#274E76"/>
<path fill-rule="evenodd" clip-rule="evenodd" d="M500.5 435.5C507.685 435.848 510.519 439.515 509 446.5C504.295 451.964 499.962 451.631 496 445.5C495.077 441.017 496.577 437.683 500.5 435.5Z" fill="#F9FCFB"/>
<path fill-rule="evenodd" clip-rule="evenodd" d="M595.5 435.5C602.685 435.848 605.519 439.515 604 446.5C597.528 452.674 593.028 451.507 590.5 443C590.831 439.52 592.498 437.02 595.5 435.5Z" fill="#FAFCFC"/>
<path fill-rule="evenodd" clip-rule="evenodd" d="M366.5 437.5C373.263 437.547 375.263 440.714 372.5 447C365.083 449.922 362.25 447.422 364 439.5C364.995 438.934 365.828 438.267 366.5 437.5Z" fill="#F9FCFB"/>
<path fill-rule="evenodd" clip-rule="evenodd" d="M438.5 437.5C446.022 437.67 448.022 441.003 444.5 447.5C438.197 449.363 435.364 447.03 436 440.5C437.045 439.627 437.878 438.627 438.5 437.5Z" fill="#F9FCFB"/>
<path fill-rule="evenodd" clip-rule="evenodd" d="M654.5 437.5C662.828 438.069 664.495 441.569 659.5 448C653.333 449.167 650.833 446.667 652 440.5C653.045 439.627 653.878 438.627 654.5 437.5Z" fill="#F9FCFB"/>
<path fill-rule="evenodd" clip-rule="evenodd" d="M727.5 437.5C734.57 438.407 736.24 441.907 732.5 448C726.66 449.48 723.83 447.313 724 441.5C724.69 439.65 725.86 438.316 727.5 437.5Z" fill="#F8FBFA"/>
<path fill-rule="evenodd" clip-rule="evenodd" d="M107.5 457.5C118.129 463.456 125.462 472.122 129.5 483.5C111.951 486.277 98.284 495.111 88.5 510C89.025 510.692 89.692 511.192 90.5 511.5C99.363 497.96 111.697 489.627 127.5 486.5C115.946 501.379 101.279 512.046 83.5 518.5C83.663 516.143 83.497 513.81 83 511.5C75.887 514.973 68.72 518.307 61.5 521.5C44.696 518.029 34.029 508.029 29.5 491.5C28.579 483.068 28.246 474.734 28.5 466.5C29.376 466.631 30.043 466.298 30.5 465.5C33.383 457.627 38.383 451.627 45.5 447.5C57.121 446.376 68.787 446.209 80.5 447C90.433 448.307 99.433 451.807 107.5 457.5Z" fill="#92B3F4"/>
<path fill-rule="evenodd" clip-rule="evenodd" d="M28.5 466.5C28.246 474.734 28.579 483.068 29.5 491.5C22.503 493.831 15.836 496.997 9.49998 501C3.39898 502.903 1.56598 501.069 3.99998 495.5C4.66698 490.167 4.66698 484.833 3.99998 479.5C2.06998 474.519 0.902983 469.352 0.499983 464C-0.0580174 459.262 1.94198 456.429 6.49998 455.5C13.85 459.175 21.184 462.842 28.5 466.5Z" fill="#294E77"/>
<path fill-rule="evenodd" clip-rule="evenodd" d="M75.5 465.5C76.675 465.281 77.675 465.614 78.5 466.5C72.827 480.606 73.494 494.439 80.5 508C80.167 508.5 79.833 509 79.5 509.5C70.456 495.645 69.122 480.979 75.5 465.5Z" fill="#12151A"/>
<path fill-rule="evenodd" clip-rule="evenodd" d="M93.5 466.5C98.635 465.426 102.468 467.093 105 471.5C105.667 474.833 105.667 478.167 105 481.5C102.523 487.45 98.357 488.95 92.5 486C87.015 479.222 87.348 472.722 93.5 466.5Z" fill="#F5F8FE"/>
<path fill-rule="evenodd" clip-rule="evenodd" d="M94.5 469.5C101.245 469.264 104.078 472.598 103 479.5C100.996 484.836 97.663 485.836 93 482.5C90.679 477.774 91.179 473.44 94.5 469.5Z" fill="#97B6F6"/>
<path fill-rule="evenodd" clip-rule="evenodd" d="M841.5 474.5C844.11 475.277 845.95 476.944 847 479.5C849.61 484.606 851.61 489.94 853 495.5C857.05 517.083 856.05 538.416 850 559.5C848.46 563.419 846.29 566.919 843.5 570C841.65 571.128 839.65 571.628 837.5 571.5C835.19 570.023 833.36 568.023 832 565.5C826.27 552.11 823.43 538.11 823.5 523.5C823.14 508.162 825.97 493.495 832 479.5C834.17 475.81 837.34 474.143 841.5 474.5Z" fill="#EBEFF2"/>
<path fill-rule="evenodd" clip-rule="evenodd" d="M838.5 476.5C841.67 476.84 843.84 478.507 845 481.5C847.06 485.677 848.73 490.01 850 494.5C853.64 514.249 853.3 533.916 849 553.5C841.89 573.809 835.55 573.476 830 552.5C825.33 532.162 825.33 511.829 830 491.5C831.33 485.489 834.16 480.489 838.5 476.5Z" fill="#30547D"/>
<path fill-rule="evenodd" clip-rule="evenodd" d="M773.5 477.5C774.78 488.769 781.11 493.769 792.5 492.5C788.24 513.25 788.58 533.916 793.5 554.5C781.61 553.736 769.95 554.903 758.5 558C755.34 558.937 752.51 560.437 750 562.5C756.46 550.504 761.79 537.838 766 524.5C768.69 512.319 770.03 499.985 770 487.5C771.08 484.106 772.24 480.772 773.5 477.5Z" fill="#284E76"/>
<path fill-rule="evenodd" clip-rule="evenodd" d="M129.5 483.5C129.218 484.778 128.551 485.778 127.5 486.5C111.697 489.627 99.363 497.96 90.5 511.5C89.692 511.192 89.025 510.692 88.5 510C98.284 495.111 111.951 486.277 129.5 483.5Z" fill="#0F1116"/>
<path fill-rule="evenodd" clip-rule="evenodd" d="M837.5 484.5C839.72 484.178 841.56 484.845 843 486.5C846.37 494.143 847.37 502.143 846 510.5C845.34 514.005 843.84 517.005 841.5 519.5C839.48 516.48 836.81 514.146 833.5 512.5C831.36 502.602 832.7 493.268 837.5 484.5Z" fill="#90B1F2"/>
<path fill-rule="evenodd" clip-rule="evenodd" d="M83.5 518.5C83.084 523.434 80.75 527.267 76.5 530C69.798 534.509 62.465 536.176 54.5 535C49.654 533.094 49.321 530.427 53.5 527C56.407 525.391 59.073 523.558 61.5 521.5C68.72 518.307 75.887 514.973 83 511.5C83.497 513.81 83.663 516.143 83.5 518.5Z" fill="#2C5179"/>
<path fill-rule="evenodd" clip-rule="evenodd" d="M831.5 516.5C833.94 516.317 836.1 516.984 838 518.5C840.77 522.035 842.43 526.035 843 530.5C843.72 538.542 843.39 546.542 842 554.5C841.87 557.414 840.7 559.747 838.5 561.5C835.05 558.335 833.21 554.335 833 549.5C831.71 538.54 831.21 527.54 831.5 516.5Z" fill="#90B1F2"/>
<path fill-rule="evenodd" clip-rule="evenodd" d="M845.5 517.5C849.62 521.346 851.28 526.18 850.5 532C850.53 535.59 850.03 539.09 849 542.5C848.33 544.5 847 545.833 845 546.5C846.02 538.629 845.52 530.796 843.5 523C843.76 520.991 844.42 519.157 845.5 517.5Z" fill="#8DAFEF"/>
<path fill-rule="evenodd" clip-rule="evenodd" d="M1100.5 602.5C1085.59 600.48 1070.59 599.98 1055.5 601C1041.68 602.203 1028.68 606.036 1016.5 612.5C1021.98 601.068 1029.31 590.901 1038.5 582C1045.04 577.545 1048.7 579.211 1049.5 587C1051.5 587.667 1053.5 587.667 1055.5 587C1060.52 580.979 1065.86 575.312 1071.5 570C1075.32 568.977 1078.82 569.477 1082 571.5C1082.94 576.735 1084.1 581.901 1085.5 587C1087.83 587.667 1090.17 587.667 1092.5 587C1095.64 586.012 1098.8 585.178 1102 584.5C1107.64 585.324 1108.98 588.324 1106 593.5C1104.64 596.898 1102.81 599.898 1100.5 602.5Z" fill="#EA8B91"/>
<path fill-rule="evenodd" clip-rule="evenodd" d="M305.5 779.5C297.764 777.64 290.098 775.48 282.5 773C259.418 771.29 244.252 781.46 237 803.5C236.667 807.5 236.333 811.5 236 815.5C234.73 819.77 231.896 822.27 227.5 823C222.511 823.5 217.511 823.67 212.5 823.5C209.105 814.15 205.605 804.82 202 795.5C201.028 793.7 199.861 792.03 198.5 790.5C188.06 788.28 179.06 783.45 171.5 776C160.876 769.13 149.209 765.46 136.5 765C129.969 760.009 129.969 755.009 136.5 750C143.492 750.415 150.492 750.749 157.5 751C160.88 749.629 163.713 747.462 166 744.5C168.032 738.736 169.866 732.903 171.5 727C166.34 712.821 156.34 705.155 141.5 704C140.667 704.833 139.833 705.667 139 706.5C136.88 711.242 134.38 715.742 131.5 720C127.526 722.364 124.026 721.864 121 718.5C119.413 713.232 118.08 707.899 117 702.5C116.293 700.919 115.46 699.419 114.5 698C107.284 695.907 99.951 694.241 92.5 693C83.167 686.333 83.167 679.667 92.5 673C97.694 673.062 101.527 670.895 104 666.5C104.173 662.281 105.173 658.281 107 654.5C110.18 650.328 113.847 649.662 118 652.5C119.836 657.011 121.17 661.677 122 666.5C123.873 668.709 126.04 670.542 128.5 672C138.491 673.332 148.491 674.499 158.5 675.5C157.866 666.823 157.032 658.156 156 649.5C155.293 647.919 154.46 646.419 153.5 645C144.739 639.537 136.239 633.704 128 627.5C126.851 618.663 130.684 615.496 139.5 618C149.67 621.085 159.003 625.752 167.5 632C170.433 634.264 172.6 637.098 174 640.5C174.333 647.833 174.667 655.167 175 662.5C175.18 665.956 175.847 669.289 177 672.5C190.567 683.033 204.4 693.2 218.5 703C221.827 703.513 223.493 702.013 223.5 698.5C220.94 688.441 214.94 681.274 205.5 677C200.167 675.333 194.833 673.667 189.5 672C184.257 667.255 184.257 662.588 189.5 658C194.877 657.841 200.21 658.341 205.5 659.5C203.387 646.956 201.887 634.289 201 621.5C193.908 611.415 187.242 601.082 181 590.5C179.47 582.034 182.97 577.868 191.5 578C193.725 578.561 195.725 579.561 197.5 581C205.636 588.135 213.47 595.635 221 603.5C223.773 607.815 225.773 612.482 227 617.5C227.999 626.474 228.665 635.474 229 644.5C230.603 648.987 232.77 653.154 235.5 657C237.112 657.72 238.612 657.554 240 656.5C240.333 650.167 240.667 643.833 241 637.5C245.62 632.177 250.286 632.177 255 637.5C255.667 646.167 255.667 654.833 255 663.5C252.752 665.816 250.419 668.15 248 670.5C244.568 677.305 244.902 683.972 249 690.5C250.247 700.906 251.914 711.24 254 721.5C255.549 724.003 257.216 724.003 259 721.5C263.333 713.5 267.667 705.5 272 697.5C272.667 684.5 272.667 671.5 272 658.5C263.667 643.167 255.333 627.833 247 612.5C243.688 601.483 247.521 597.316 258.5 600C263.451 605.406 268.284 610.906 273 616.5C277.199 621.034 281.699 625.201 286.5 629C288.833 629.667 291.167 629.667 293.5 629C300.328 624.085 307.328 619.419 314.5 615C322.914 615.41 325.748 619.577 323 627.5C318.763 631.036 314.263 634.202 309.5 637C305.885 640.619 303.051 644.786 301 649.5C299.727 665.78 299.06 682.114 299 698.5C294.663 710.84 288.996 722.507 282 733.5C280.473 739.415 280.139 745.415 281 751.5C283.206 755.125 286.373 756.292 290.5 755C303.145 742.875 310.312 728.042 312 710.5C316.625 706.354 320.959 706.687 325 711.5C325.24 717.514 325.24 723.514 325 729.5C328.554 739.527 335.387 743.027 345.5 740C349.445 736.054 352.611 731.554 355 726.5C360.708 718.637 367.542 717.471 375.5 723C380.239 728.76 380.739 734.927 377 741.5C372.676 748.638 367.509 755.138 361.5 761C349.703 768.36 337.37 769.36 324.5 764C320.497 763.16 317.164 764.33 314.5 767.5C311.479 771.57 308.479 775.57 305.5 779.5Z" fill="#EC8D93"/>
<path fill-rule="evenodd" clip-rule="evenodd" d="M1100.5 602.5C1107.43 605.137 1113.1 609.47 1117.5 615.5C1123.8 625.504 1125.14 636.171 1121.5 647.5C1113.98 667.657 1099.31 678.323 1077.5 679.5C1068.28 676.481 1059.11 673.148 1050 669.5C1048.65 671.594 1048.15 673.927 1048.5 676.5C1028.96 671.398 1011.3 662.564 995.5 650C992.88 647.894 990.88 645.394 989.5 642.5C1009.37 645.764 1026.03 654.764 1039.5 669.5C1041.1 668.965 1041.6 667.965 1041 666.5C1026.52 651.008 1008.68 642.008 987.5 639.5C987.76 636.984 988.59 634.65 990 632.5C997.58 624.08 1006.41 617.413 1016.5 612.5C1028.68 606.036 1041.68 602.203 1055.5 601C1070.59 599.98 1085.59 600.48 1100.5 602.5Z" fill="#92B2F3"/>
<path fill-rule="evenodd" clip-rule="evenodd" d="M1121.5 647.5C1125.14 636.171 1123.8 625.504 1117.5 615.5C1120.85 615.665 1124.18 615.498 1127.5 615C1137.95 610.943 1148.28 606.609 1158.5 602C1169.05 600.553 1173.55 605.053 1172 615.5C1169.8 621.761 1167.8 628.095 1166 634.5C1165.33 639.5 1165.33 644.5 1166 649.5C1166.48 652.624 1167.65 655.457 1169.5 658C1166.54 660.33 1163.21 660.996 1159.5 660C1151.5 656.667 1143.5 653.333 1135.5 650C1131 648.22 1126.33 647.387 1121.5 647.5Z" fill="#E98B91"/>
<path fill-rule="evenodd" clip-rule="evenodd" d="M549.5 668.5C550.002 661.815 550.669 655.149 551.5 648.5C553.988 647.26 555.821 645.26 557 642.5C559.283 627.871 553.116 621.371 538.5 623C530.489 627.189 527.489 633.689 529.5 642.5C527.703 649.226 525.703 655.892 523.5 662.5C517.686 658.216 513.853 652.549 512 645.5C508.41 625.414 516.243 611.914 535.5 605C559.191 602.531 572.858 613.031 576.5 636.5C575.402 653.925 566.402 664.591 549.5 668.5Z" fill="#284E76"/>
<path fill-rule="evenodd" clip-rule="evenodd" d="M653.5 617.5C627.167 618.167 600.833 618.833 574.5 619.5C573.957 619.44 573.624 619.107 573.5 618.5C600.158 617.5 626.825 617.167 653.5 617.5Z" fill="#4C828F"/>
<path fill-rule="evenodd" clip-rule="evenodd" d="M1056.5 621.5C1058.12 621.36 1059.29 622.027 1060 623.5C1067.33 639.506 1065.33 654.173 1054 667.5C1053.5 667 1053 666.5 1052.5 666C1062.74 651.99 1064.07 637.157 1056.5 621.5Z" fill="#111419"/>
<path fill-rule="evenodd" clip-rule="evenodd" d="M551.5 648.5C552.038 646.883 552.371 645.216 552.5 643.5C556.89 637.264 555.89 631.764 549.5 627C539.904 623.629 533.904 626.796 531.5 636.5C531.741 638.898 531.074 640.898 529.5 642.5C527.489 633.689 530.489 627.189 538.5 623C553.116 621.371 559.283 627.871 557 642.5C555.821 645.26 553.988 647.26 551.5 648.5Z" fill="#6BADA5"/>
<path fill-rule="evenodd" clip-rule="evenodd" d="M1025.5 623.5C1039.06 622.984 1043.56 628.984 1039 641.5C1033 646.833 1027 646.833 1021 641.5C1016.89 634.071 1018.39 628.071 1025.5 623.5Z" fill="#F3F6FE"/>
<path fill-rule="evenodd" clip-rule="evenodd" d="M552.5 643.5C554.367 638.873 553.701 634.706 550.5 631C545.5 630.333 540.5 630.333 535.5 631C534.023 632.812 532.69 634.645 531.5 636.5C533.904 626.796 539.904 623.629 549.5 627C555.89 631.764 556.89 637.264 552.5 643.5Z" fill="#2F567E"/>
<path fill-rule="evenodd" clip-rule="evenodd" d="M1026.5 626.5C1033.3 625.221 1037.3 627.888 1038.5 634.5C1038.1 639.737 1035.26 642.403 1030 642.5C1023.19 641.893 1020.53 638.227 1022 631.5C1023.02 629.313 1024.52 627.646 1026.5 626.5Z" fill="#95B5F6"/>
<path fill-rule="evenodd" clip-rule="evenodd" d="M552.5 643.5C552.371 645.216 552.038 646.883 551.5 648.5C550.669 655.149 550.002 661.815 549.5 668.5C548.766 669.708 548.433 671.041 548.5 672.5C548.111 675.946 547.278 679.279 546 682.5C538.572 686.289 534.072 683.956 532.5 675.5C523.545 677.879 520.212 674.545 522.5 665.5C522.557 664.391 522.89 663.391 523.5 662.5C525.703 655.892 527.703 649.226 529.5 642.5C531.074 640.898 531.741 638.898 531.5 636.5C532.69 634.645 534.023 632.812 535.5 631C540.5 630.333 545.5 630.333 550.5 631C553.701 634.706 554.367 638.873 552.5 643.5Z" fill="#8FB0F1"/>
<path fill-rule="evenodd" clip-rule="evenodd" d="M541.5 634.5C542.634 636.966 542.801 639.633 542 642.5C540.541 649.464 539.207 656.464 538 663.5C537.902 665.619 537.069 667.286 535.5 668.5C535.167 667.667 534.833 666.833 534.5 666C536.891 655.477 539.224 644.977 541.5 634.5Z" fill="#12151A"/>
<path fill-rule="evenodd" clip-rule="evenodd" d="M987.5 639.5C1008.68 642.008 1026.52 651.008 1041 666.5C1041.6 667.965 1041.1 668.965 1039.5 669.5C1026.03 654.764 1009.37 645.764 989.5 642.5C986.95 642.332 986.28 641.332 987.5 639.5Z" fill="#0F1116"/>
<path fill-rule="evenodd" clip-rule="evenodd" d="M567.5 663.5C627.776 680.319 688.11 696.986 748.5 713.5C751.1 711.164 753.1 708.33 754.5 705C752.77 702.374 751.44 699.54 750.5 696.5C751.5 692.164 754.17 690.664 758.5 692C760.31 693.806 762.14 695.64 764 697.5C765.58 696.139 767.42 695.472 769.5 695.5C769.34 692.482 769.5 689.482 770 686.5C772.21 684.294 774.71 683.96 777.5 685.5C779.02 688.054 780.35 690.721 781.5 693.5C782.19 690.855 783.19 688.355 784.5 686C789.64 683.403 792.97 684.903 794.5 690.5C793.42 692.875 793.42 695.208 794.5 697.5C807.32 705.145 812.65 716.479 810.5 731.5C811.87 731.657 813.21 731.49 814.5 731C816.69 728.294 819.52 726.794 823 726.5C830.54 715.289 839.2 704.955 849 695.5C849.33 692.5 849.67 689.5 850 686.5C856.04 676.664 863.04 675.997 871 684.5C873.91 693.356 870.91 699.356 862 702.5C858.73 715.364 854.07 727.697 848 739.5C847.49 742.674 848.33 745.507 850.5 748C881.99 765.16 914.49 779.99 948 792.5C954.69 795.18 961.53 797.01 968.5 798C972.44 765.74 965.77 735.737 948.5 708C950.97 704.366 953.97 701.199 957.5 698.5C959.63 699.467 961.63 700.634 963.5 702C1004.67 745.176 1021.67 796.51 1014.5 856C1013 861.47 1009.33 863.8 1003.5 863C993.12 869.19 982.45 874.86 971.5 880C931.35 895.57 890.02 899.57 847.5 892C843.68 891.59 840.68 889.93 838.5 887C839.69 883.44 841.03 879.94 842.5 876.5C874.8 872.34 905.47 862.84 934.5 848C936.21 846.87 936.71 845.37 936 843.5C932.83 840.33 929.67 837.17 926.5 834C897.37 811.6 866.71 791.43 834.5 773.5C831.51 774.61 828.68 775.95 826 777.5C818.8 788.38 810.46 798.38 801 807.5C801.62 821.1 795.45 825.93 782.5 822C774.68 812.45 776.52 805.28 788 800.5C790.99 787.18 795.66 774.52 802 762.5C801.5 758.806 801.66 755.14 802.5 751.5C801.67 750.585 800.67 749.919 799.5 749.5C793.67 753.332 787.34 755.999 780.5 757.5C778.2 761.27 775.53 764.77 772.5 768C767.21 771.23 762.38 775.06 758 779.5C754.81 785.81 753.81 792.48 755 799.5C756.9 807.95 760.4 815.62 765.5 822.5C764.82 827.35 762.16 829.19 757.5 828C741.49 810.34 739.33 791.17 751 770.5C757.15 765.85 762.99 760.845 768.5 755.5C764.83 753 761.17 750.5 757.5 748C751.91 742.321 748.91 735.488 748.5 727.5C681.906 709.741 615.573 691.408 549.5 672.5C556.327 671.087 562.327 668.087 567.5 663.5Z" fill="#8CAEEE"/>
<path fill-rule="evenodd" clip-rule="evenodd" d="M1077.5 679.5C1081.07 681.287 1084.74 683.121 1088.5 685C1095.43 688.864 1095.1 691.864 1087.5 694C1077.45 694.656 1067.78 692.989 1058.5 689C1053.44 686.119 1050.11 681.952 1048.5 676.5C1048.15 673.927 1048.65 671.594 1050 669.5C1059.11 673.148 1068.28 676.481 1077.5 679.5Z" fill="#E88A91"/>
<path fill-rule="evenodd" clip-rule="evenodd" d="M857.5 681.5C866.04 681.2 869.87 685.2 869 693.5C866.1 698.155 861.94 699.655 856.5 698C850.95 692.032 851.29 686.532 857.5 681.5Z" fill="#294F78"/>
<path fill-rule="evenodd" clip-rule="evenodd" d="M780.5 697.5C781.81 699.915 782.48 702.748 782.5 706C782.17 708.833 781.83 711.667 781.5 714.5C780.5 708.872 780.17 703.206 780.5 697.5Z" fill="#08090C"/>
<path fill-rule="evenodd" clip-rule="evenodd" d="M850.5 697.5C853.29 699.4 856.29 701.067 859.5 702.5C855.96 715.646 850.79 727.979 844 739.5C837.44 736.47 831.27 732.803 825.5 728.5C832.72 717.28 841.05 706.946 850.5 697.5Z" fill="#284E77"/>
<path fill-rule="evenodd" clip-rule="evenodd" d="M765.5 700.5C766.5 700.414 767.33 700.748 768 701.5C769.64 704.606 771.14 707.773 772.5 711C772.17 711.5 771.83 712 771.5 712.5C768.96 708.757 766.96 704.757 765.5 700.5Z" fill="#0B0D12"/>
<path fill-rule="evenodd" clip-rule="evenodd" d="M792.5 700.5C797.48 701.921 801.31 704.921 804 709.5C807.84 715.681 809.17 722.347 808 729.5C802.33 726.167 796.67 722.833 791 719.5C790.79 713.126 791.29 706.792 792.5 700.5Z" fill="#2B507A"/>
<path fill-rule="evenodd" clip-rule="evenodd" d="M956.5 702.5C960.84 703.431 964.34 705.764 967 709.5C990.22 735.937 1004.88 766.6 1011 801.5C1011.94 816.23 1011.44 830.89 1009.5 845.5C1009.48 848.83 1010.15 851.99 1011.5 855C1011.36 856.23 1011.02 857.39 1010.5 858.5C1008.23 859.31 1005.9 859.81 1003.5 860C968.1 882.79 929.27 893.63 887 892.5C871.88 893.11 857.05 891.44 842.5 887.5C842.17 887.17 841.83 886.83 841.5 886.5C842.69 884.25 843.69 881.92 844.5 879.5C876.79 874.79 907.45 864.96 936.5 850C939.33 845.93 938.99 842.1 935.5 838.5C905.16 813.01 872.49 790.84 837.5 772C837.04 771.59 836.71 771.09 836.5 770.5C840.42 764.33 844.09 757.997 847.5 751.5C848.36 750.417 849.36 750.251 850.5 751C887.07 770.95 925.07 787.62 964.5 801C967.64 802.04 970.14 801.21 972 798.5C975.28 766.03 968.45 735.864 951.5 708C953.37 706.296 955.04 704.463 956.5 702.5Z" fill="#274D76"/>
<path fill-rule="evenodd" clip-rule="evenodd" d="M756.5 707.5C762.37 712.903 765.87 719.57 767 727.5C768.67 731.5 770.33 735.5 772 739.5C772.88 744.119 772.22 748.453 770 752.5C754.24 744.891 748.24 732.558 752 715.5C753.26 712.644 754.76 709.977 756.5 707.5Z" fill="#294F79"/>
<path fill-rule="evenodd" clip-rule="evenodd" d="M784.5 722.5C786.86 722.337 789.19 722.503 791.5 723C798 726.833 804.5 730.667 811 734.5C809.44 739.13 807.27 743.63 804.5 748C795.95 744.969 788.12 740.469 781 734.5C779.59 729.643 780.76 725.643 784.5 722.5Z" fill="#294E78"/>
<path fill-rule="evenodd" clip-rule="evenodd" d="M818.5 730.5C819.87 730.343 821.21 730.51 822.5 731C828.5 734.333 834.5 737.667 840.5 741C843.18 742.346 845.18 744.346 846.5 747C842.01 755.649 837.01 763.98 831.5 772C827.89 772.21 824.55 771.21 821.5 769C815.92 765.62 810.42 762.12 805 758.5C804.33 756.5 804.33 754.5 805 752.5C809.26 744.972 813.76 737.638 818.5 730.5Z" fill="#284E77"/>
<path fill-rule="evenodd" clip-rule="evenodd" d="M235.5 706.5C237.857 706.337 240.19 706.503 242.5 707C243.667 707.5 244.5 708.333 245 709.5C244.369 715.788 244.036 722.122 244 728.5C245.014 732.378 246.514 736.044 248.5 739.5C250.94 737.613 253.607 736.28 256.5 735.5C258.374 735.39 259.874 736.056 261 737.5C261.667 739.833 261.667 742.167 261 744.5C255.714 747.453 251.38 751.453 248 756.5C246.36 760.126 246.194 763.79 247.5 767.5C249.765 768.65 252.098 768.81 254.5 768C260.482 765.68 266.149 762.84 271.5 759.5C273.383 759.876 274.883 760.876 276 762.5C277.149 765.39 277.649 768.39 277.5 771.5C276.5 771.5 275.5 771.5 274.5 771.5C274.664 768.81 274.497 766.15 274 763.5C273.107 762.92 272.107 762.59 271 762.5C265.407 765.74 259.574 768.58 253.5 771C250.743 771.78 248.243 771.28 246 769.5C242.749 758.496 246.249 750.329 256.5 745C260.566 742.012 260.4 739.512 256 737.5C253.76 738.036 251.927 739.203 250.5 741C248.888 741.72 247.388 741.554 246 740.5C244.667 737.167 243.333 733.833 242 730.5C241.455 723.733 241.788 717.067 243 710.5C240.413 707.966 237.747 707.966 235 710.5C233.333 713.833 231.667 717.167 230 720.5C229.838 727.199 230.338 733.866 231.5 740.5C231.167 742.833 230.833 745.167 230.5 747.5C228.724 749.447 226.724 749.78 224.5 748.5C223.26 744.349 221.26 740.683 218.5 737.5C216.954 738.212 215.954 739.378 215.5 741C216.861 744.889 218.361 748.722 220 752.5C221.932 754.038 224.099 755.205 226.5 756C228.049 757.214 229.215 758.714 230 760.5C231.365 769.49 232.531 778.49 233.5 787.5C231.801 787.66 230.134 787.49 228.5 787C224 783.17 219.5 779.33 215 775.5C210.564 767.46 207.397 758.963 205.5 750C207.816 741.254 209.816 732.421 211.5 723.5C210.373 718.528 208.207 718.195 205 722.5C202.528 728.915 199.862 735.248 197 741.5C195.833 742.667 194.667 743.833 193.5 745C187.53 745.341 181.697 744.508 176 742.5C172.655 743.719 171.821 745.886 173.5 749C180.508 749.555 186.674 752.055 192 756.5C196.194 765.42 200.194 774.42 204 783.5C209.333 788.17 214.667 792.83 220 797.5C220.667 801.5 220.667 805.5 220 809.5C218.031 813.23 217.031 817.23 217 821.5C214.925 817.07 215.258 812.74 218 808.5C218.667 805.17 218.667 801.83 218 798.5C211.689 794.19 206.022 789.19 201 783.5C198.277 775.72 195.277 768.06 192 760.5C186.954 754.478 180.454 751.311 172.5 751C169.667 747.337 170 744.004 173.5 741C180.154 741.463 186.821 741.797 193.5 742C197.551 734.731 201.218 727.231 204.5 719.5C212.81 715.631 215.977 718.298 214 727.5C211.353 735.746 209.353 744.08 208 752.5C210.68 760.039 213.847 767.37 217.5 774.5C222.092 778.05 226.592 781.71 231 785.5C229.917 777.58 228.917 769.58 228 761.5C226.62 758.117 224.12 756.284 220.5 756C217.409 751.413 215.076 746.413 213.5 741C213.927 735.911 216.594 734.244 221.5 736C223.382 738.978 224.882 742.145 226 745.5C227 746.833 228 746.833 229 745.5C228.07 736.917 227.737 728.251 228 719.5C229.993 714.845 232.493 710.511 235.5 706.5Z" fill="#FDF1F2"/>
<path fill-rule="evenodd" clip-rule="evenodd" d="M783.5 740.5C787.81 742.988 792.14 745.488 796.5 748C792.25 750.917 787.58 752.75 782.5 753.5C783.2 749.202 783.53 744.869 783.5 740.5Z" fill="#2D527D"/>
<path fill-rule="evenodd" clip-rule="evenodd" d="M521.5 773.5C503.131 771.03 485.131 772.53 467.5 778C465.93 779.83 464.263 780.33 462.5 779.5C466.054 772.24 470.72 765.74 476.5 760C480.934 757.273 483.934 758.273 485.5 763C486.833 763.67 488.167 763.67 489.5 763C492.464 759.034 495.797 755.367 499.5 752C502.54 749.845 505.373 750.012 508 752.5C508.066 756.233 508.899 759.733 510.5 763C514.234 763.26 517.901 762.76 521.5 761.5C525.073 761.43 526.24 763.09 525 766.5C523.82 768.86 522.653 771.19 521.5 773.5Z" fill="#EC8D93"/>
<path fill-rule="evenodd" clip-rule="evenodd" d="M804.5 762.5C811.48 765.99 818.15 769.99 824.5 774.5C817.31 786.03 808.64 796.36 798.5 805.5C796.84 803.67 794.84 802.34 792.5 801.5C791.7 796 792.53 790.67 795 785.5C798.18 777.81 801.35 770.15 804.5 762.5Z" fill="#284E78"/>
<path fill-rule="evenodd" clip-rule="evenodd" d="M305.5 779.5C307.562 780.78 309.896 781.61 312.5 782C340.04 782.84 366.04 789.51 390.5 802C400.894 808.39 410.06 816.23 418 825.5C424.918 834.75 429.418 845.08 431.5 856.5C430.022 856.76 428.689 856.43 427.5 855.5C419.841 829 403.174 810.5 377.5 800C369.626 796.93 361.626 794.26 353.5 792C338.196 789.45 322.863 787.11 307.5 785C298.938 782.03 290.271 779.36 281.5 777C254.98 776.7 241.147 789.86 240 816.5C237.833 821.33 234.333 824.83 229.5 827C219.833 827.33 210.167 827.67 200.5 828C197.37 830.13 194.537 832.63 192 835.5C180.963 851.11 174.796 868.44 173.5 887.5C172.167 887.5 170.833 887.5 169.5 887.5C170.722 864.89 178.722 845.06 193.5 828C195.5 826.67 197.5 825.33 199.5 824C203.821 823.5 208.154 823.33 212.5 823.5C217.511 823.67 222.511 823.5 227.5 823C231.896 822.27 234.73 819.77 236 815.5C236.333 811.5 236.667 807.5 237 803.5C244.252 781.46 259.418 771.29 282.5 773C290.098 775.48 297.764 777.64 305.5 779.5Z" fill="#33547B"/>
<path fill-rule="evenodd" clip-rule="evenodd" d="M521.5 773.5C525.767 776.43 529.767 779.76 533.5 783.5C536.555 789.86 537.221 796.52 535.5 803.5C536.602 804.18 537.602 804.84 538.5 805.5C537.178 805.33 536.011 805.66 535 806.5C533.078 812.43 529.578 817.26 524.5 821C518.435 824.41 512.101 826.91 505.5 828.5C498.421 828.55 491.421 827.89 484.5 826.5C471.601 822.22 459.601 816.05 448.5 808C446.627 806.3 444.96 804.46 443.5 802.5C456.923 804.96 468.423 810.96 478 820.5C479.257 820.15 479.591 819.48 479 818.5C469.032 807.27 456.532 800.93 441.5 799.5C443.859 794.63 447.193 790.46 451.5 787C455.345 784.64 459.011 782.14 462.5 779.5C464.263 780.33 465.93 779.83 467.5 778C485.131 772.53 503.131 771.03 521.5 773.5Z" fill="#F0BBB8"/>
<path fill-rule="evenodd" clip-rule="evenodd" d="M538.5 805.5C537.602 804.84 536.602 804.18 535.5 803.5C537.221 796.52 536.555 789.86 533.5 783.5C535.527 783.66 537.527 783.5 539.5 783C546.167 780 552.833 777 559.5 774C567.17 772.03 571.003 774.86 571 782.5C568.149 788.72 566.316 795.22 565.5 802C565.763 805.7 566.763 809.2 568.5 812.5C568.291 813.09 567.957 813.59 567.5 814C565.5 814.67 563.5 814.67 561.5 814C554.02 810.59 546.353 807.76 538.5 805.5Z" fill="#EC8D93"/>
<path fill-rule="evenodd" clip-rule="evenodd" d="M468.5 786.5C477.174 786.01 480.674 790.01 479 798.5C476.774 802.86 473.274 804.36 468.5 803C463.931 800.46 462.431 796.63 464 791.5C465.193 789.5 466.693 787.84 468.5 786.5Z" fill="#FDF7F7"/>
<path fill-rule="evenodd" clip-rule="evenodd" d="M490.5 786.5C494.512 790.19 496.178 794.86 495.5 800.5C495.715 807.86 493.381 814.2 488.5 819.5C488.167 819 487.833 818.5 487.5 818C493.277 808.52 493.943 798.68 489.5 788.5C489.863 787.82 490.196 787.15 490.5 786.5Z" fill="#191514"/>
<path fill-rule="evenodd" clip-rule="evenodd" d="M469.5 789.5C476.263 789.55 478.263 792.71 475.5 799C468.6 802.1 465.766 799.93 467 792.5C467.698 791.31 468.531 790.31 469.5 789.5Z" fill="#F2BFBC"/>
<path fill-rule="evenodd" clip-rule="evenodd" d="M441.5 799.5C456.532 800.93 469.032 807.27 479 818.5C479.591 819.48 479.257 820.15 478 820.5C468.423 810.96 456.923 804.96 443.5 802.5C440.949 802.33 440.282 801.33 441.5 799.5Z" fill="#161312"/>
<path fill-rule="evenodd" clip-rule="evenodd" d="M786.5 803.5C795.01 803.84 798.51 808.18 797 816.5C789.29 824.03 783.79 822.7 780.5 812.5C781.26 808.63 783.26 805.63 786.5 803.5Z" fill="#2A507A"/>
<path fill-rule="evenodd" clip-rule="evenodd" d="M284.5 815.5C295.213 813.55 302.879 817.39 307.5 827C315.255 827.92 322.588 830.25 329.5 834C332.04 836.2 334.207 838.7 336 841.5C339.039 847.74 342.206 853.91 345.5 860C355.409 863.41 365.076 867.41 374.5 872C381.055 875.55 385.888 880.72 389 887.5C389.837 891.29 389.504 894.96 388 898.5C384.346 897.19 383.512 894.86 385.5 891.5C384.245 887.06 381.911 883.23 378.5 880C373.997 876.25 368.997 873.25 363.5 871C356.266 868.92 349.266 866.26 342.5 863C339.206 856.91 336.039 850.74 333 844.5C326.829 835.77 318.329 831.6 307.5 832C304.112 829.21 301.446 825.88 299.5 822C292.635 818.43 285.968 818.76 279.5 823C270.784 831.02 260.451 834.68 248.5 834C244.658 835.67 241.491 838.17 239 841.5C234.394 850.38 230.061 859.38 226 868.5C225.333 871.83 225.333 875.17 226 878.5C227.682 883.5 230.182 888 233.5 892C233.237 893.95 232.237 894.61 230.5 894C223.449 886.51 220.616 877.68 222 867.5C226.394 857.71 231.061 848.04 236 838.5C238.537 835.63 241.37 833.13 244.5 831C251.719 829.12 259.052 827.79 266.5 827C272.406 822.91 278.406 819.08 284.5 815.5Z" fill="#98B7F6"/>
<path fill-rule="evenodd" clip-rule="evenodd" d="M484.5 826.5C491.421 827.89 498.421 828.55 505.5 828.5C508.473 829.99 511.473 831.49 514.5 833C515.517 834.05 515.684 835.22 515 836.5C506.585 838.34 498.418 837.5 490.5 834C487.906 831.91 485.906 829.41 484.5 826.5Z" fill="#EC8E94"/>
</svg>
