<svg width="68" height="12" viewBox="0 0 68 12" fill="none" xmlns="http://www.w3.org/2000/svg">
<path d="M1 11V0.5H4.075L6.58 4.565L9.085 0.5H12.16V11H9.265V4.97L6.58 9.08H6.52L3.85 4.985V11H1ZM17.9975 11.195C15.4175 11.195 13.5425 9.305 13.5425 6.98V6.95C13.5425 4.625 15.4325 2.705 18.0275 2.705C20.6225 2.705 22.4975 4.61 22.4975 6.92V6.95C22.4975 9.275 20.5925 11.195 17.9975 11.195ZM18.0275 8.78C19.0625 8.78 19.7375 7.955 19.7375 6.98V6.95C19.7375 5.945 19.0175 5.105 17.9975 5.105C16.9625 5.105 16.3025 5.915 16.3025 6.92V6.95C16.3025 7.94 17.0225 8.78 18.0275 8.78ZM23.7012 11V2.885H26.5512V4.025C27.0762 3.35 27.8262 2.705 28.9812 2.705C30.7212 2.705 31.7412 3.83 31.7412 5.69V11H28.9062V6.605C28.9062 5.705 28.4562 5.225 27.7512 5.225C27.0462 5.225 26.5512 5.705 26.5512 6.605V11H23.7012ZM37.348 11.195C34.768 11.195 32.893 9.305 32.893 6.98V6.95C32.893 4.625 34.783 2.705 37.378 2.705C39.973 2.705 41.848 4.61 41.848 6.92V6.95C41.848 9.275 39.943 11.195 37.348 11.195ZM37.378 8.78C38.413 8.78 39.088 7.955 39.088 6.98V6.95C39.088 5.945 38.368 5.105 37.348 5.105C36.313 5.105 35.653 5.915 35.653 6.92V6.95C35.653 7.94 36.373 8.78 37.378 8.78Z" fill="#FFFEF9"/>
<path d="M43.2168 11V0.5H51.6618V2.96H46.0968V4.565H51.1368V6.86H46.0968V8.525H51.7368V11H43.2168ZM55.3963 11.18C53.8513 11.18 52.6813 10.28 52.6813 8.675V8.645C52.6813 6.95 53.9563 6.095 55.8613 6.095C56.6263 6.095 57.3463 6.23 57.8113 6.41V6.275C57.8113 5.42 57.2863 4.94 56.1913 4.94C55.3363 4.94 54.6763 5.105 53.9413 5.39L53.3563 3.395C54.2713 3.02 55.2463 2.765 56.6413 2.765C58.0963 2.765 59.0863 3.11 59.7313 3.755C60.3463 4.355 60.6013 5.195 60.6013 6.335V11H57.7963V10.145C57.2113 10.76 56.4763 11.18 55.3963 11.18ZM56.4163 9.395C57.2563 9.395 57.8413 8.885 57.8413 8.06V7.685C57.5413 7.565 57.1363 7.475 56.7163 7.475C55.8763 7.475 55.4113 7.865 55.4113 8.48V8.51C55.4113 9.065 55.8313 9.395 56.4163 9.395ZM65.2026 11.165C63.4776 11.165 62.4876 10.415 62.4876 8.48V5.165H61.5276V2.885H62.4876V0.830001H65.3226V2.885H67.2126V5.165H65.3226V7.925C65.3226 8.51 65.5776 8.735 66.1026 8.735C66.4776 8.735 66.8376 8.63 67.1826 8.465V10.685C66.6576 10.97 65.9976 11.165 65.2026 11.165Z" fill="#FFF7AE"/>
</svg>
