<svg width="68" height="12" viewBox="0 0 68 12" fill="none" xmlns="http://www.w3.org/2000/svg">
<g clip-path="url(#clip0_12_367)">
<path d="M0.930054 11V0.5H4.00505L6.51005 4.565L9.01505 0.5H12.0901V11H9.19505V4.97L6.51005 9.08H6.45005L3.78005 4.985V11H0.930054ZM17.9276 11.195C15.3476 11.195 13.4726 9.305 13.4726 6.98V6.95C13.4726 4.625 15.3626 2.705 17.9576 2.705C20.5526 2.705 22.4276 4.61 22.4276 6.92V6.95C22.4276 9.275 20.5226 11.195 17.9276 11.195ZM17.9576 8.78C18.9926 8.78 19.6676 7.955 19.6676 6.98V6.95C19.6676 5.945 18.9476 5.105 17.9276 5.105C16.8926 5.105 16.2326 5.915 16.2326 6.92V6.95C16.2326 7.94 16.9526 8.78 17.9576 8.78ZM23.6313 11V2.885H26.4813V4.025C27.0063 3.35 27.7563 2.705 28.9113 2.705C30.6513 2.705 31.6713 3.83 31.6713 5.69V11H28.8363V6.605C28.8363 5.705 28.3863 5.225 27.6813 5.225C26.9763 5.225 26.4813 5.705 26.4813 6.605V11H23.6313ZM37.2781 11.195C34.6981 11.195 32.8231 9.305 32.8231 6.98V6.95C32.8231 4.625 34.7131 2.705 37.3081 2.705C39.9031 2.705 41.7781 4.61 41.7781 6.92V6.95C41.7781 9.275 39.8731 11.195 37.2781 11.195ZM37.3081 8.78C38.3431 8.78 39.0181 7.955 39.0181 6.98V6.95C39.0181 5.945 38.2981 5.105 37.2781 5.105C36.2431 5.105 35.5831 5.915 35.5831 6.92V6.95C35.5831 7.94 36.3031 8.78 37.3081 8.78Z" fill="#252013"/>
<path d="M43.1469 11V0.5H51.5919V2.96H46.0268V4.565H51.0668V6.86H46.0268V8.525H51.6669V11H43.1469ZM55.3264 11.18C53.7814 11.18 52.6114 10.28 52.6114 8.675V8.645C52.6114 6.95 53.8864 6.095 55.7914 6.095C56.5564 6.095 57.2763 6.23 57.7413 6.41V6.275C57.7413 5.42 57.2163 4.94 56.1213 4.94C55.2663 4.94 54.6063 5.105 53.8713 5.39L53.2864 3.395C54.2014 3.02 55.1763 2.765 56.5714 2.765C58.0264 2.765 59.0163 3.11 59.6614 3.755C60.2764 4.355 60.5313 5.195 60.5313 6.335V11H57.7263V10.145C57.1413 10.76 56.4064 11.18 55.3264 11.18ZM56.3463 9.395C57.1863 9.395 57.7714 8.885 57.7714 8.06V7.685C57.4714 7.565 57.0664 7.475 56.6464 7.475C55.8064 7.475 55.3414 7.865 55.3414 8.48V8.51C55.3414 9.065 55.7613 9.395 56.3463 9.395ZM65.1326 11.165C63.4076 11.165 62.4176 10.415 62.4176 8.48V5.165H61.4576V2.885H62.4176V0.830001H65.2527V2.885H67.1427V5.165H65.2527V7.925C65.2527 8.51 65.5077 8.735 66.0326 8.735C66.4076 8.735 66.7677 8.63 67.1127 8.465V10.685C66.5877 10.97 65.9276 11.165 65.1326 11.165Z" fill="#E26D00"/>
</g>
<defs>
<clipPath id="clip0_12_367">
<rect width="68" height="12" fill="white"/>
</clipPath>
</defs>
</svg>
