<svg width="20" height="15" viewBox="0 0 20 15" fill="none" xmlns="http://www.w3.org/2000/svg">
<path d="M0.5625 12V3.27273H6.85227V5.18182H2.93182V6.68182H6.52841V8.59091H2.93182V10.0909H6.83523V12H0.5625ZM9.8853 12.1023C9.46768 12.1023 9.09837 12.0341 8.77734 11.8977C8.45916 11.7585 8.20916 11.5483 8.02734 11.267C7.84553 10.9858 7.75462 10.6278 7.75462 10.1932C7.75462 9.83523 7.8157 9.52983 7.93786 9.27699C8.06001 9.02131 8.23047 8.8125 8.44922 8.65057C8.66797 8.48864 8.92223 8.36506 9.212 8.27983C9.50462 8.1946 9.81996 8.1392 10.158 8.11364C10.5245 8.08523 10.8185 8.05114 11.0401 8.01136C11.2646 7.96875 11.4265 7.91051 11.5259 7.83665C11.6254 7.75994 11.6751 7.65909 11.6751 7.53409V7.51705C11.6751 7.34659 11.6097 7.21591 11.479 7.125C11.3484 7.03409 11.1808 6.98864 10.9762 6.98864C10.7518 6.98864 10.5685 7.03835 10.4265 7.13778C10.2873 7.23437 10.2035 7.38352 10.1751 7.58523H8.0103C8.03871 7.1875 8.16513 6.82102 8.38956 6.4858C8.61683 6.14773 8.9478 5.87784 9.38246 5.67614C9.81712 5.47159 10.3597 5.36932 11.0103 5.36932C11.479 5.36932 11.8995 5.42472 12.2717 5.53551C12.6438 5.64347 12.9606 5.79545 13.2219 5.99148C13.4833 6.18466 13.6822 6.41193 13.8185 6.6733C13.9577 6.93182 14.0273 7.21307 14.0273 7.51705V12H11.8285V11.0795H11.7773C11.6467 11.3239 11.4876 11.5213 11.3001 11.6719C11.1154 11.8224 10.9038 11.9318 10.6651 12C10.4293 12.0682 10.1694 12.1023 9.8853 12.1023ZM10.6523 10.6193C10.8313 10.6193 10.9989 10.5824 11.1552 10.5085C11.3143 10.4347 11.4435 10.3281 11.543 10.1889C11.6424 10.0497 11.6921 9.88068 11.6921 9.68182V9.13636C11.6296 9.16193 11.5629 9.18608 11.4918 9.20881C11.4237 9.23153 11.3498 9.25284 11.2702 9.27273C11.1935 9.29261 11.1112 9.31108 11.0231 9.32812C10.9379 9.34517 10.8484 9.3608 10.7546 9.375C10.5728 9.40341 10.4237 9.45028 10.3072 9.51562C10.1935 9.57812 10.1083 9.65625 10.0515 9.75C9.99751 9.84091 9.97053 9.94318 9.97053 10.0568C9.97053 10.2386 10.0344 10.3778 10.1623 10.4744C10.2901 10.571 10.4535 10.6193 10.6523 10.6193ZM19.0547 5.45455V7.15909H14.7422V5.45455H19.0547ZM15.5774 3.88636H17.9297V9.89489C17.9297 9.9858 17.9453 10.0625 17.9766 10.125C18.0078 10.1847 18.0561 10.2301 18.1214 10.2614C18.1868 10.2898 18.2706 10.304 18.3729 10.304C18.4439 10.304 18.5263 10.2955 18.62 10.2784C18.7166 10.2614 18.7876 10.2472 18.8331 10.2358L19.174 11.8892C19.0689 11.9205 18.9183 11.9588 18.7223 12.0043C18.5291 12.0497 18.299 12.0795 18.032 12.0938C17.4922 12.1222 17.0391 12.0668 16.6726 11.9276C16.3061 11.7855 16.0305 11.5625 15.8459 11.2585C15.6612 10.9545 15.5717 10.5739 15.5774 10.1165V3.88636Z" fill="#FFF7AE"/>
</svg>
